<svg width="73" height="16" viewBox="0 0 73 16" fill="none" xmlns="http://www.w3.org/2000/svg">
<path fill-rule="evenodd" clip-rule="evenodd" d="M72.082 9.62488C72.0329 9.62469 71.9865 9.62451 71.8987 9.62451C71.2755 9.62451 70.8641 9.44181 70.4338 8.77009C70.0141 8.10237 69.311 6.97896 69.311 6.97896L72.3689 2.71828H69.7132L67.2853 6.09922V0H65.0663V11.7102H67.2853V7.99316C67.2853 7.99316 68.5282 9.9452 68.9057 10.5469C69.5142 11.4751 70.3254 11.7204 71.672 11.7204L72.3207 11.7188V9.62531C72.1959 9.62531 72.1373 9.62509 72.082 9.62488ZM51.7545 9.90918C51.7054 9.90899 51.659 9.90881 51.5712 9.90881C50.9481 9.90881 50.5366 9.72611 50.1062 9.05439C49.6867 8.38667 48.9835 7.26326 48.9835 7.26326L52.0414 3.00257H49.3857L46.958 6.38352V0.284299H44.7388V11.9945H46.958V8.27746C46.958 8.27746 48.2008 10.2295 48.5781 10.8312C49.1867 11.7594 49.998 12.0047 51.3445 12.0047L51.9932 12.0031V9.90961C51.8684 9.90961 51.8098 9.90939 51.7545 9.90918ZM17.0313 12.0238C15.6493 12.0238 14.5207 11.7702 13.608 10.8322L15.0282 9.41205C15.4972 9.88107 16.3213 10.0459 17.0438 10.0459C17.9188 10.0459 18.3372 9.75456 18.3372 9.23465C18.3372 9.01892 18.2869 8.84099 18.1598 8.70091C18.0458 8.58692 17.8554 8.49769 17.5638 8.45986L16.4736 8.30805C15.6747 8.1938 15.0662 7.92747 14.6603 7.50905C14.2417 7.07811 14.0392 6.46952 14.0392 5.69632C14.0392 4.04793 15.2818 2.843 17.3355 2.843C18.6288 2.843 19.6053 3.14742 20.3786 3.92089L18.9839 5.31546C18.4452 4.77706 17.7487 4.78068 17.3417 4.78279L17.2721 4.78304C16.4988 4.78304 16.182 5.22703 16.182 5.61989C16.182 5.73414 16.2199 5.89875 16.3595 6.0383C16.4736 6.15256 16.6633 6.26656 16.9808 6.30464L18.0708 6.45699C18.8824 6.57072 19.4656 6.82428 19.846 7.20489C20.3279 7.67392 20.5178 8.34561 20.5178 9.18406C20.5178 11.0226 18.9332 12.0238 17.0313 12.0238ZM24.7203 12.0238C25.8232 12.0238 26.5842 11.669 27.2436 11.0096C28.1591 10.094 28.1578 8.8837 28.1565 7.58336L28.1564 7.43288L28.1565 7.28248C28.1578 5.98286 28.1591 4.77311 27.2436 3.8575C26.5842 3.19804 25.8232 2.843 24.7203 2.843C23.6171 2.843 22.8564 3.19804 22.1973 3.8575C21.2816 4.77301 21.2828 5.98259 21.2842 7.28205L21.2843 7.43288L21.2842 7.5838C21.2828 8.88397 21.2816 10.0941 22.1973 11.0096C22.8564 11.669 23.6171 12.0238 24.7203 12.0238ZM24.6334 4.8331C25.0392 4.8331 25.3562 5.01075 25.521 5.22623C25.7237 5.4923 25.8505 5.79673 25.8505 7.44485C25.8505 9.09481 25.7237 9.3862 25.521 9.65254C25.3562 9.868 25.0392 10.0579 24.6334 10.0579C24.2277 10.0579 23.9107 9.868 23.7461 9.65254C23.5434 9.3862 23.4164 9.09481 23.4164 7.44485C23.4164 5.79673 23.5434 5.4923 23.7461 5.22623C23.9107 5.01075 24.2277 4.8331 24.6334 4.8331ZM58.3026 11.1517C58.9619 11.8112 59.7607 12.1662 60.813 12.1662C62.525 12.1662 63.9068 11.2148 64.2364 9.22445H61.9798C61.8403 9.73184 61.5614 10.1883 60.8258 10.1883C60.42 10.1883 60.116 10.0235 59.9508 9.80775C59.7481 9.54168 59.6087 9.22445 59.6087 7.57529C59.6087 5.9269 59.7481 5.60995 59.9508 5.34362C60.116 5.12815 60.42 4.96328 60.8258 4.96328C61.5614 4.96328 61.8403 5.41953 61.9798 5.9269H64.2364C63.9068 3.93627 62.525 2.98515 60.813 2.98515C59.7607 2.98515 58.9619 3.34046 58.3026 3.99992C57.3877 4.91531 57.3889 6.12463 57.3903 7.42497L57.3904 7.57529L57.3903 7.72555C57.3889 9.02552 57.3877 10.2363 58.3026 11.1517ZM41.376 12.6132V11.7516C40.9783 11.9426 40.61 12.0241 40.2016 12.0241C39.1493 12.0241 38.3505 11.669 37.6917 11.0096C36.7759 10.0945 36.7772 8.88435 36.7786 7.58498L36.7787 7.43313L36.7786 7.28122C36.7772 5.98148 36.7759 4.77278 37.6917 3.85777C38.3505 3.1983 39.1493 2.843 40.2016 2.843C41.0011 2.843 41.8032 3.08137 42.4278 3.55573C43.128 4.08788 43.6065 4.91248 43.6065 5.95201L43.6143 12.6172C43.6143 14.8321 42.41 15.9859 40.2016 16L39.2175 15.9965V14.0171L40.0244 14.0117C40.5551 14.0117 41.376 13.8016 41.376 12.6132ZM39.3951 9.67757C39.56 9.89329 39.8642 10.0582 40.2701 10.0582C40.993 10.0582 41.2742 9.61684 41.4162 9.12038V5.77114C41.2742 5.27388 40.993 4.8331 40.2701 4.8331C39.8642 4.8331 39.56 4.99795 39.3951 5.21343C39.1922 5.47977 39.0529 5.79672 39.0529 7.44511C39.0529 9.09427 39.1922 9.41149 39.3951 9.67757ZM35.8332 6.83492L35.8276 11.9468L33.6099 11.9433L33.614 6.83998C33.614 5.67667 33.4927 5.51785 33.2975 5.26251L33.2843 5.24512C33.1197 5.02966 32.8027 4.82111 32.3969 4.82111C31.9909 4.82111 31.6743 5.02966 31.5094 5.24512C31.3063 5.51122 31.1797 5.6806 31.1797 6.83439L31.1774 11.9471L28.9602 11.9476L28.9608 6.83439L28.9607 6.73892C28.9593 5.88722 28.9576 4.77367 29.8738 3.85749C30.533 3.19802 31.2939 2.843 32.3969 2.843C33.5003 2.843 34.261 3.19802 34.92 3.85749C35.836 4.77315 35.8345 5.83494 35.8333 6.7357L35.8332 6.83492ZM52.8414 1.89485L55.0522 1.89857V0.284571L52.8417 0.284299L52.8414 1.89485ZM52.6992 2.98515L54.9554 2.98648L54.9558 8.50059C54.9594 9.42872 55.5861 9.88951 56.3229 9.88951L56.5836 9.89005V11.9878L56.1147 11.9928C53.8629 11.9787 52.7021 10.745 52.7021 8.57511L52.6992 2.98515ZM2.22067 4.3938H1.56692L0 11.8029H0.581109L0.840533 10.5785H0.861287C0.951221 11.0212 1.15876 11.3602 1.4839 11.5954C1.80905 11.8306 2.19991 11.9482 2.6565 11.9482C3.11309 11.9482 3.51778 11.8462 3.8706 11.6421C4.22342 11.438 4.51916 11.1734 4.75783 10.8483C4.9965 10.5231 5.1781 10.1565 5.30262 9.7483C5.42714 9.34014 5.4894 8.93198 5.4894 8.52382C5.4894 8.20559 5.4479 7.90985 5.36488 7.63659C5.28187 7.36333 5.15561 7.12812 4.98612 6.93096C4.81663 6.7338 4.60564 6.57815 4.35313 6.464C4.10062 6.34985 3.80142 6.29278 3.45552 6.29278C3.04044 6.29278 2.67552 6.39309 2.36076 6.59371C2.04599 6.79433 1.79521 7.06067 1.60843 7.39273H1.58767L2.22067 4.3938ZM3.5541 11.1388C3.27392 11.3187 2.94705 11.4086 2.57347 11.4086C2.32443 11.4086 2.10824 11.3654 1.92491 11.2789C1.74159 11.1924 1.58939 11.0766 1.46833 10.9313C1.34726 10.786 1.25733 10.6148 1.19853 10.4176C1.13973 10.2205 1.11032 10.0077 1.11032 9.77944C1.11032 9.47504 1.15702 9.15163 1.25041 8.80919C1.34381 8.46675 1.48216 8.15026 1.66549 7.8597C1.84882 7.56914 2.07711 7.32702 2.35037 7.13331C2.62363 6.93961 2.94012 6.84276 3.29986 6.84276C3.83946 6.84276 4.23032 6.99495 4.47245 7.29934C4.71458 7.60374 4.83565 8.00497 4.83565 8.50307C4.83565 8.82822 4.78722 9.16373 4.69037 9.50963C4.59352 9.85553 4.44997 10.1686 4.25973 10.4487C4.06948 10.7289 3.83427 10.9589 3.5541 11.1388ZM6.17428 13.2246C5.99441 13.2246 5.81108 13.2142 5.6243 13.1935L5.49977 13.7227C5.59663 13.7296 5.69175 13.74 5.78514 13.7538C5.87853 13.7676 5.9702 13.7746 6.06013 13.7746C6.64816 13.7746 7.08053 13.5359 7.35725 13.0586L11.1656 6.44844H10.46L7.99024 10.9935H7.96949L7.20159 6.44844H6.51672L7.50252 11.8029L7.01481 12.6435C6.93179 12.7818 6.82111 12.9133 6.68275 13.0378C6.54439 13.1623 6.3749 13.2246 6.17428 13.2246Z" fill="#455A64"/>
</svg>
